<?xml version="1.0" encoding="utf-8"?>
<svg xmlns="http://www.w3.org/2000/svg" viewBox="-1.3984 16.5519 513.8917 478.8156" width="513.892px" height="478.816px">
  <path d="M0 0 C0.64396729 0.51320801 1.28793457 1.02641602 1.95141602 1.55517578 C8.46299028 6.54311129 13.89672804 6.82032911 21.9375 6.75 C24.35424066 6.78712801 26.77091576 6.8287994 29.1875 6.875 C30.35667969 6.89175781 31.52585937 6.90851562 32.73046875 6.92578125 C70.02436682 7.77235719 103.41523355 23.38832163 130 49 C130.70511719 49.64195313 131.41023438 50.28390625 132.13671875 50.9453125 C154.51732995 71.9186236 170.07946626 106.31783179 171.13422108 136.8904705 C171.14351948 138.3290462 171.1475321 139.76766261 171.14717102 141.20626831 C171.15084771 142.00471448 171.1545244 142.80316065 171.1583125 143.62580216 C171.16927761 146.28683702 171.17318096 148.94783273 171.17700195 151.60888672 C171.1832722 153.52319968 171.1899195 155.43751145 171.19691467 157.3518219 C171.21789701 163.62776858 171.2283141 169.90371532 171.23828125 176.1796875 C171.24233149 178.34713885 171.24644849 180.51459007 171.25063133 182.68204117 C171.26967306 192.87115013 171.2839042 203.06025191 171.2922433 213.24937522 C171.30200124 224.97588547 171.3282874 236.70220624 171.36874419 248.42864978 C171.39900445 257.51433332 171.41372168 266.59996286 171.41702431 275.68569577 C171.41936416 281.10153257 171.42818463 286.51716673 171.45348549 291.93294907 C171.47694417 297.03677674 171.48092865 302.14027089 171.47072411 307.24413872 C171.47023288 309.10435668 171.47642948 310.96459207 171.49028015 312.82475853 C171.71710102 345.12787005 159.36403066 372.84801892 137.5 396.49609375 C118.60568463 415.41993149 94.84538278 427.90714799 67.69702148 428.19067383 C40.97997165 428.15314583 17.98211559 420.70732124 -3 404 C-3.68707031 403.48824219 -4.37414062 402.97648437 -5.08203125 402.44921875 C-10.57634432 398.15787107 -13.50862834 393.4396016 -14.5 386.5 C-13.14497401 377.0148181 -6.92561167 371.36062801 -0.37890625 364.91796875 C0.56820064 363.97325157 1.51456335 363.02778779 2.46022034 362.08161926 C4.43358286 360.11136715 6.41342294 358.14796066 8.39868164 356.18969727 C10.93521485 353.68723476 13.45828919 351.17171449 15.97708035 348.6514082 C17.92652544 346.70250828 19.88114941 344.7588738 21.83754158 342.81694984 C23.2203637 341.44352397 24.6002544 340.06714863 25.98008728 338.6907196 C26.82769119 337.8558754 27.6752951 337.02103119 28.54858398 336.16088867 C29.28930649 335.42778976 30.03002899 334.69469086 30.79319763 333.93937683 C35.90835475 329.44408657 39.60722597 328.4613517 46.28515625 328.640625 C50.36927689 329.1812568 52.60668501 330.67125442 56 333 C60.33033296 335.67190757 63.11086511 336.44116145 68.0390625 335.58203125 C72.57909882 334.23449059 75.41863861 331.87204209 78 328 C79.52520889 322.22759638 79.18417429 316.30142248 79.1875 310.375 C79.19974609 309.24964844 79.21199219 308.12429688 79.22460938 306.96484375 C79.24970311 292.49412524 76.90566817 279.58966444 67.3203125 268.32421875 C54.17523196 255.15700844 34.59464589 253.28616456 17 251 C16.01 251 15.02 251 14 251 C-15.24239669 308.36752326 -36.44641276 364.88524924 -38.65893555 429.96142578 C-39.30479564 448.55356295 -39.30479564 448.55356295 -45.5625 455.8125 C-48.87701011 458.55057357 -52.60114722 458.13829904 -56.68701172 458.16113281 C-57.36216827 458.16609772 -58.03732483 458.17106262 -58.73294067 458.17617798 C-60.96520001 458.19077598 -63.19738829 458.19759746 -65.4296875 458.203125 C-66.98283897 458.2088782 -68.53599041 458.21463591 -70.08914185 458.22039795 C-73.34572683 458.23090107 -76.60228718 458.23674831 -79.85888672 458.24023438 C-84.0274607 458.24571907 -88.19570805 458.26974923 -92.36417961 458.29820633 C-95.57269232 458.31684889 -98.78112658 458.32203915 -101.98968887 458.32357025 C-103.52625439 458.32659344 -105.06281864 458.33461073 -106.5993309 458.34775543 C-108.75120513 458.36485112 -110.90228423 458.36292766 -113.05419922 458.35644531 C-114.27759003 458.36009094 -115.50098083 458.36373657 -116.76144409 458.36749268 C-122.13762985 457.75743407 -125.50355405 454.99593823 -129 451 C-130.2063665 447.38090049 -130.13189056 444.08176757 -130.11352539 440.31567383 C-130.11367142 439.5349501 -130.11381744 438.75422638 -130.1139679 437.94984436 C-130.11327114 435.36887841 -130.10548982 432.7879846 -130.09765625 430.20703125 C-130.09579123 428.41769958 -130.09436772 426.6283674 -130.09336853 424.83903503 C-130.08954999 420.12902416 -130.07972533 415.41904411 -130.06866455 410.70904541 C-130.05663794 405.05808397 -130.05204503 399.40711223 -130.04621124 393.75614166 C-130.03651325 385.17073967 -130.01735204 376.58540531 -130 368 C-149.8 368 -169.6 368 -190 368 C-189.95359375 373.70539063 -189.9071875 379.41078125 -189.859375 385.2890625 C-189.83893231 388.90757032 -189.81967629 392.52600676 -189.8046875 396.14453125 C-189.78079326 401.88573019 -189.7525526 407.6266735 -189.69824219 413.36767578 C-189.65472142 417.99720432 -189.63084961 422.62645865 -189.62049103 427.25617599 C-189.61311083 429.02080984 -189.59869889 430.78542899 -189.57707977 432.54994583 C-189.54796238 435.02532409 -189.54404739 437.49957518 -189.54589844 439.97509766 C-189.53151733 440.70158508 -189.51713623 441.42807251 -189.50231934 442.17657471 C-189.55045735 448.14172138 -191.77589483 451.42003801 -195.5625 455.8125 C-198.87701011 458.55057357 -202.60114722 458.13829904 -206.68701172 458.16113281 C-207.36216827 458.16609772 -208.03732483 458.17106262 -208.73294067 458.17617798 C-210.96520001 458.19077598 -213.19738829 458.19759746 -215.4296875 458.203125 C-216.98283897 458.2088782 -218.53599041 458.21463591 -220.08914185 458.22039795 C-223.34572683 458.23090107 -226.60228718 458.23674831 -229.85888672 458.24023438 C-234.0274607 458.24571907 -238.19570805 458.26974923 -242.36417961 458.29820633 C-245.57269232 458.31684889 -248.78112658 458.32203915 -251.98968887 458.32357025 C-253.52625439 458.32659344 -255.06281864 458.33461073 -256.5993309 458.34775543 C-258.75120513 458.36485112 -260.90228423 458.36292766 -263.05419922 458.35644531 C-264.27759003 458.36009094 -265.50098083 458.36373657 -266.76144409 458.36749268 C-271.83631705 457.79162532 -274.27688472 455.75598416 -277.75 452.125 C-281.01676198 447.58783059 -281.12210974 443.69430248 -281.15771484 438.21020508 C-281.17310806 436.49605156 -281.17310806 436.49605156 -281.18881226 434.74726868 C-281.19611359 433.51711533 -281.20341492 432.28696198 -281.2109375 431.01953125 C-281.23183437 429.05922179 -281.25274932 427.09891235 -281.27463722 425.1386137 C-281.32736411 420.33181783 -281.3715994 415.52501142 -281.40136719 410.71801758 C-281.50035998 395.59087557 -281.62769491 380.80617254 -285 366 C-285.20802246 365.07340576 -285.41604492 364.14681152 -285.63037109 363.19213867 C-286.17767931 360.98950698 -286.7993512 358.84570477 -287.5 356.6875 C-287.74645264 355.92026611 -287.99290527 355.15303223 -288.24682617 354.36254883 C-293.01221556 340.3954161 -300.73714816 327.61862873 -308.82421875 315.3515625 C-321.85974896 295.27169729 -331.06491845 273.1609974 -337 250 C-337.33668701 248.72842041 -337.33668701 248.72842041 -337.68017578 247.43115234 C-344.48010782 220.57063799 -343.64636385 187.78272191 -337 161 C-336.78569336 160.11199707 -336.57138672 159.22399414 -336.35058594 158.30908203 C-325.05291044 112.64969918 -298.86846487 72.93829942 -261 45 C-260.17371094 44.37867188 -259.34742188 43.75734375 -258.49609375 43.1171875 C-232.88606103 24.48383036 -199.92411768 10.4063488 -168 9 C-168.70833333 10.41666667 -169.41666667 11.83333333 -170.125 13.25 C-170.58132812 14.17167969 -171.03765625 15.09335937 -171.5078125 16.04296875 C-172.47339019 17.9564303 -173.46662286 19.8562896 -174.4921875 21.73828125 C-188.98033366 48.87540477 -188.74627253 81.03779215 -180 110 C-169.7339646 142.01874531 -151.69126495 169.18286856 -133.09228516 196.82568359 C-127.6287149 204.95979913 -122.33934632 213.18030999 -117.17431641 221.50708008 C-113.27923118 227.78293529 -109.15312259 233.893318 -105 240 C-104.44570312 240.86109375 -103.89140625 241.7221875 -103.3203125 242.609375 C-100.51415897 246.7655159 -98.02050656 249.00941522 -93.3203125 250.8203125 C-86.93964773 251.31443805 -80.96102774 248.29625356 -75.4375 245.4375 C-74.75204102 245.08743896 -74.06658203 244.73737793 -73.36035156 244.37670898 C-40.97055858 227.59891503 -12.90673867 203.25290618 -1.53125 167.55078125 C-1.07421013 166.01570764 -0.62610075 164.47794339 -0.1875 162.9375 C0.00755127 162.25445801 0.20260254 161.57141602 0.40356445 160.86767578 C3.91193826 147.61725824 4.32085586 134.517603 4.26074219 120.90185547 C4.24991609 117.9773332 4.26074984 115.05341121 4.2734375 112.12890625 C4.27211751 110.25260282 4.26955846 108.37629977 4.265625 106.5 C4.27169769 105.20147095 4.27169769 105.20147095 4.27789307 103.87670898 C4.22274737 96.74547198 3.14401868 91.29099064 -2 86 C-5.88658951 83.55700088 -9.44964624 83.83501652 -13.84765625 84.45703125 C-16.99690832 85.25148867 -18.79141401 86.65756031 -21 89 C-22.71137381 91.87347254 -23.25198486 93.9854575 -23.27124023 97.31518555 C-23.28142685 98.1609465 -23.29161346 99.00670746 -23.30210876 99.87809753 C-23.30424881 100.78844254 -23.30638885 101.69878754 -23.30859375 102.63671875 C-23.33379804 104.59700761 -23.35919527 106.557294 -23.38476562 108.51757812 C-23.41321967 111.58210311 -23.43724562 114.64658379 -23.45629883 117.71118164 C-23.68199999 148.1262732 -29.33596925 172.69048602 -51 195 C-51.53753906 195.59941406 -52.07507813 196.19882813 -52.62890625 196.81640625 C-60.36585947 205.17386699 -72.2972475 213.99100288 -83 218 C-85.00488281 217.74584961 -85.00488281 217.74584961 -87 217 C-88.70565364 214.64799341 -90.17193879 212.37561697 -91.625 209.875 C-92.5201832 208.38944686 -93.41736295 206.90509523 -94.31640625 205.421875 C-94.76773926 204.67228516 -95.21907227 203.92269531 -95.68408203 203.15039062 C-97.56038118 200.08426022 -99.54936013 197.10238836 -101.5625 194.125 C-165.24398942 99.32156242 -165.24398942 99.32156242 -156 52 C-153.01849312 38.76863615 -146.77561461 27.27620672 -138 17 C-137.38382813 16.25105469 -136.76765625 15.50210938 -136.1328125 14.73046875 C-124.61665415 1.15620178 -109.30780263 -7.80757072 -92.90087891 -14.25244141 C-91.20894484 -14.91782827 -89.53102771 -15.61861069 -87.85546875 -16.32421875 C-58.50330835 -26.84669135 -25.14636302 -15.71647689 0 0 Z M52.5 134.6875 C50.55916897 138.97350185 50.18562508 142.37135889 51 147 C53.36316288 151.81721665 56.20321055 154.60160527 61 157 C67.39103136 157.81155954 70.80200607 156.77109363 76 153 C79.02653463 149.26727396 79.83531697 145.77580801 80 141 C78.3351271 135.31984539 75.982673 132.19643173 71 129 C63.59028774 126.37668572 57.64259182 129.1592138 52.5 134.6875 Z " transform="matrix(0.9999999999999999, 0, 0, 0.9999999999999999, 340.99999999999994, 36.999999999999986)" style="fill: rgb(36, 182, 90);"/>
</svg>